<svg xmlns="http://www.w3.org/2000/svg" viewBox="0 0 1668 1000" width="1668" height="1000" preserveAspectRatio="xMidYMid meet" style="width: 100%; height: 100%; transform: translate3d(0px, 0px, 0px); content-visibility: visible;"><defs><clipPath id="__lottie_element_2"><rect width="1668" height="1000" x="0" y="0"></rect></clipPath><clipPath id="__lottie_element_4"><path d="M0,0 L2400,0 L2400,2400 L0,2400z"></path></clipPath><clipPath id="__lottie_element_16"><path d="M0,0 L2400,0 L2400,2400 L0,2400z"></path></clipPath><filter id="__lottie_element_20" filterUnits="objectBoundingBox" x="0%" y="0%" width="100%" height="100%"><feComponentTransfer in="SourceGraphic"><feFuncA type="table" tableValues="1.0 0.0"></feFuncA></feComponentTransfer></filter><mask id="__lottie_element_19" mask-type="alpha"><g filter="url(#__lottie_element_20)"><rect width="2400" height="2400" x="0" y="0" fill="#ffffff" opacity="0"></rect><g transform="matrix(1,0,0,1,1560,1180)" opacity="1" style="display: block;"><path stroke-linecap="butt" stroke-linejoin="miter" fill-opacity="0" stroke-miterlimit="4" stroke="rgb(255,255,255)" stroke-opacity="1" stroke-width="288" d="M0 0"></path></g></g></mask><filter id="__lottie_element_27" filterUnits="objectBoundingBox" x="0%" y="0%" width="100%" height="100%"><feComponentTransfer in="SourceGraphic"><feFuncA type="table" tableValues="1.0 0.0"></feFuncA></feComponentTransfer></filter><mask id="__lottie_element_26" mask-type="alpha"><g filter="url(#__lottie_element_27)"><rect width="2400" height="2400" x="0" y="0" fill="#ffffff" opacity="0"></rect><g transform="matrix(3.180000066757202,0,0,3.180000066757202,-1758.800048828125,-565.2000732421875)" opacity="1" style="display: block;"><g opacity="1" transform="matrix(1,0,0,1,1043.2740478515625,548.47802734375)"><path class="lottieIcon" fill="rgb(0,0,0)" fill-opacity="1" d=" M0,-88.49600219726562 C48.797000885009766,-88.49600219726562 88.49700164794922,-48.797000885009766 88.49700164794922,0.0010000000474974513 C88.49700164794922,48.79800033569336 48.797000885009766,88.49700164794922 0,88.49700164794922 C-48.797000885009766,88.49700164794922 -88.49600219726562,48.79800033569336 -88.49600219726562,0.0010000000474974513 C-88.49600219726562,-48.797000885009766 -48.797000885009766,-88.49600219726562 0,-88.49600219726562z"></path></g></g></g></mask><clipPath id="__lottie_element_34"><path d="M0,0 L2400,0 L2400,2400 L0,2400z"></path></clipPath><filter id="__lottie_element_38" filterUnits="objectBoundingBox" x="0%" y="0%" width="100%" height="100%"><feComponentTransfer in="SourceGraphic"><feFuncA type="table" tableValues="1.0 0.0"></feFuncA></feComponentTransfer></filter><mask id="__lottie_element_37" mask-type="alpha"><g filter="url(#__lottie_element_38)"><rect width="2400" height="2400" x="0" y="0" fill="#ffffff" opacity="0"></rect><g transform="matrix(1,0,0,1,1560,1180)" opacity="1" style="display: none;"><path stroke-linecap="butt" stroke-linejoin="miter" fill-opacity="0" stroke-miterlimit="4" stroke="rgb(255,255,255)" stroke-opacity="1" stroke-width="288" d="M0 0"></path></g></g></mask><filter id="__lottie_element_45" filterUnits="objectBoundingBox" x="0%" y="0%" width="100%" height="100%"><feComponentTransfer in="SourceGraphic"><feFuncA type="table" tableValues="1.0 0.0"></feFuncA></feComponentTransfer></filter><mask id="__lottie_element_44" mask-type="alpha"><g filter="url(#__lottie_element_45)"><rect width="2400" height="2400" x="0" y="0" fill="#ffffff" opacity="0"></rect><g transform="matrix(3.180000066757202,0,0,3.180000066757202,-1758.800048828125,-565.2000732421875)" opacity="1" style="display: block;"><g opacity="1" transform="matrix(1,0,0,1,1043.2740478515625,548.47802734375)"><path class="lottieIcon" fill="rgb(0,0,0)" fill-opacity="1" d=" M0,-88.49600219726562 C48.797000885009766,-88.49600219726562 88.49700164794922,-48.797000885009766 88.49700164794922,0.0010000000474974513 C88.49700164794922,48.79800033569336 48.797000885009766,88.49700164794922 0,88.49700164794922 C-48.797000885009766,88.49700164794922 -88.49600219726562,48.79800033569336 -88.49600219726562,0.0010000000474974513 C-88.49600219726562,-48.797000885009766 -48.797000885009766,-88.49600219726562 0,-88.49600219726562z"></path></g></g></g></mask></defs><g clip-path="url(#__lottie_element_2)"><g clip-path="url(#__lottie_element_4)" transform="matrix(0.800000011920929,0,0,0.800000011920929,-56,-420)" opacity="1" style="display: block;"><g transform="matrix(1,0,0,1,607.7449951171875,1587.2515869140625)" opacity="1" style="display: none;"><path class="lottieIcon" fill="rgb(255,255,255)" fill-opacity="1" d=" M138,-138 C138,-138 138,138 138,138 C138,138 -138,138 -138,138 C-138,138 -138,-138 -138,-138 C-138,-138 138,-138 138,-138z"></path></g><g transform="matrix(3.180000066757202,0,0,3.180000066757202,-1758.8009033203125,-565.2011108398438)" opacity="1" style="display: block;"><g opacity="1" transform="matrix(1,0,0,1,765.7890014648438,606.7780151367188)"><path class="lottieIcon" fill="rgb(255,255,255)" fill-opacity="1" d=" M4.1020002365112305,-114.54499816894531 C4.1020002365112305,-114.54499816894531 4.1020002365112305,-114.54499816894531 4.1020002365112305,-114.54499816894531 C4.1020002365112305,-114.54499816894531 -79.28299713134766,72.73999786376953 -79.28299713134766,72.73999786376953 C-79.28299713134766,72.73999786376953 14.614999771118164,114.5459976196289 14.614999771118164,114.5459976196289 C14.614999771118164,114.5459976196289 56.194000244140625,21.159000396728516 56.194000244140625,21.159000396728516 C79.28299713134766,-30.698999404907227 55.96099853515625,-91.45600128173828 4.1020002365112305,-114.54499816894531z"></path></g></g><g transform="matrix(3.180000066757202,0,0,3.180000066757202,-1757.9466552734375,-564.1168212890625)" opacity="1" style="display: block;"><g opacity="1" transform="matrix(1,0,0,1,753.2030029296875,424.3800048828125)"><path class="lottieIcon" fill="rgb(255,255,255)" fill-opacity="1" d=" M-35.40399932861328,-67.85199737548828 C-58.49300003051758,-15.994000434875488 -35.17100143432617,44.76300048828125 16.687999725341797,67.85199737548828 C16.687999725341797,67.85199737548828 58.49300003051758,-26.04599952697754 58.49300003051758,-26.04599952697754 C58.49300003051758,-26.04599952697754 -35.40399932861328,-67.85199737548828 -35.40399932861328,-67.85199737548828z"></path></g></g><g transform="matrix(3.180000066757202,0,0,3.180000066757202,-1758.8004150390625,-562.1992797851562)" opacity="1" style="display: none;"><g opacity="1" transform="matrix(1,0,0,1,753.2030029296875,424.3800048828125)"><path class="lottieIcon" fill="rgb(255,255,255)" fill-opacity="1" d=" M-35.40399932861328,-67.85199737548828 C-58.49300003051758,-15.994000434875488 -35.17100143432617,44.76300048828125 16.687999725341797,67.85199737548828 C16.687999725341797,67.85199737548828 58.49300003051758,-26.04599952697754 58.49300003051758,-26.04599952697754 C58.49300003051758,-26.04599952697754 -35.40399932861328,-67.85199737548828 -35.40399932861328,-67.85199737548828z"></path></g></g><g mask="url(#__lottie_element_19)" style="display: block;"><g clip-path="url(#__lottie_element_16)" transform="matrix(1,0,0,1,0,0)" opacity="1"><g mask="url(#__lottie_element_26)" style="display: block;"><g transform="matrix(3.180000066757202,0,0,3.180000066757202,-1758.800048828125,-565.2000732421875)" opacity="1"><g opacity="1" transform="matrix(1,0,0,1,1043.2740478515625,548.47802734375)"><path class="lottieIcon" fill="rgb(255,255,255)" fill-opacity="1" d=" M0,-176.99200439453125 C-97.75,-176.99200439453125 -176.9929962158203,-97.75 -176.9929962158203,0.0010000000474974513 C-176.9929962158203,97.7509994506836 -97.75,176.99200439453125 0,176.99200439453125 C97.7509994506836,176.99200439453125 176.9929962158203,97.7509994506836 176.9929962158203,0.0010000000474974513 C176.9929962158203,-97.75 97.7509994506836,-176.99200439453125 0,-176.99200439453125z"></path></g></g></g></g></g><g mask="url(#__lottie_element_37)" style="display: none;"><g clip-path="url(#__lottie_element_34)" transform="matrix(1,0,0,1,0,0)" opacity="1"><g mask="url(#__lottie_element_44)" style="display: block;"><g transform="matrix(3.180000066757202,0,0,3.180000066757202,-1758.800048828125,-565.2000732421875)" opacity="1"><g opacity="1" transform="matrix(1,0,0,1,1043.2740478515625,548.47802734375)"><path class="lottieIcon" fill="rgb(255,255,255)" fill-opacity="1" d=" M0,-176.99200439453125 C-97.75,-176.99200439453125 -176.9929962158203,-97.75 -176.9929962158203,0.0010000000474974513 C-176.9929962158203,97.7509994506836 -97.75,176.99200439453125 0,176.99200439453125 C97.7509994506836,176.99200439453125 176.9929962158203,97.7509994506836 176.9929962158203,0.0010000000474974513 C176.9929962158203,-97.75 97.7509994506836,-176.99200439453125 0,-176.99200439453125z"></path></g></g></g></g></g></g></g></svg>