<svg xmlns="http://www.w3.org/2000/svg" xmlns:xlink="http://www.w3.org/1999/xlink" style="width:100%;height:100%;content-visibility:visible" viewBox="0 0 1668 1000">
    <defs>
        <path id="a" d="M0 0h2400v2400H0z" />
        <path id="c" fill="#fff" d="M0 0h2400v2400H0z" opacity="0" />
        <path id="d" fill-opacity="0" stroke="#FFF" stroke-width="288" d="M1560 1180" display="block" />
        <path id="f" d="M0-88.496c48.797 0 88.497 39.699 88.497 88.497 0 48.797-39.7 88.496-88.497 88.496S-88.496 48.798-88.496.001c0-48.798 39.699-88.497 88.496-88.497z" class="lottieIcon" display="block" />
        <path id="n" fill="#FFF" d="M1558.811 616.126c-310.845 0-562.837 251.99-562.837 562.837 0 310.845 251.992 562.832 562.837 562.832 310.849 0 562.838-251.987 562.838-562.832 0-310.848-251.99-562.837-562.838-562.837z" class="lottieIcon" />
    </defs>
    <defs>
        <clipPath id="i">
            <path d="M0 0h1668v1000H0z" />
        </clipPath>
        <clipPath id="j">
            <use xlink:href="#a" />
        </clipPath>
        <clipPath id="l">
            <use xlink:href="#a" />
        </clipPath>
        <clipPath id="p">
            <use xlink:href="#a" />
        </clipPath>
        <filter id="b" width="100%" height="100%" x="0%" y="0%" filterUnits="objectBoundingBox">
            <feComponentTransfer in="SourceGraphic">
                <feFuncA tableValues="1.0 0.0" type="table" />
            </feComponentTransfer>
        </filter>
        <filter id="e" width="100%" height="100%" x="0%" y="0%" filterUnits="objectBoundingBox">
            <feComponentTransfer in="SourceGraphic">
                <feFuncA tableValues="1.0 0.0" type="table" />
            </feComponentTransfer>
        </filter>
        <filter id="g" width="100%" height="100%" x="0%" y="0%" filterUnits="objectBoundingBox">
            <feComponentTransfer in="SourceGraphic">
                <feFuncA tableValues="1.0 0.0" type="table" />
            </feComponentTransfer>
        </filter>
        <filter id="h" width="100%" height="100%" x="0%" y="0%" filterUnits="objectBoundingBox">
            <feComponentTransfer in="SourceGraphic">
                <feFuncA tableValues="1.0 0.0" type="table" />
            </feComponentTransfer>
        </filter>
        <mask id="k" mask-type="alpha">
            <g filter="url(#b)">
                <use xlink:href="#c" opacity="0" />
                <use xlink:href="#d" fill-opacity="0" stroke-width="288" display="block" />
            </g>
        </mask>
        <mask id="m" mask-type="alpha">
            <g filter="url(#e)">
                <use xlink:href="#c" opacity="0" />
                <use xlink:href="#f" class="lottieIcon" display="block" transform="matrix(3.18 0 0 3.18 1558.811 1178.96)" />
            </g>
        </mask>
        <mask id="o" mask-type="alpha">
            <g filter="url(#g)">
                <use xlink:href="#c" opacity="0" />
                <use xlink:href="#d" fill-opacity="0" stroke-width="288" display="none" />
            </g>
        </mask>
        <mask id="q" mask-type="alpha">
            <g filter="url(#h)">
                <use xlink:href="#c" opacity="0" />
                <use xlink:href="#f" class="lottieIcon" display="block" transform="matrix(3.18 0 0 3.18 1558.811 1178.96)" />
            </g>
        </mask>
    </defs>
    <g clip-path="url(#i)">
        <g clip-path="url(#j)" display="block" transform="matrix(.8 0 0 .8 -56 -420)">
            <path fill="#FFF" d="M745.745 1449.252v276h-276v-276h276z" class="lottieIcon" display="none" />
            <path fill="#FFF" d="m689.453 1000.1-265.165 595.566 298.596 132.943 132.221-296.97c73.423-164.909-.74-358.116-165.652-431.54z" class="lottieIcon" display="block" />
            <path fill="#FFF" d="M524.654 569.642c-73.423 164.909.741 358.116 165.653 431.539l132.94-298.596-298.593-132.943z" class="lottieIcon" display="block" />
            <path fill="#FFF" d="M523.8 571.56c-73.423 164.908.741 358.116 165.653 431.539l132.94-298.596L523.8 571.56z" class="lottieIcon" display="none" />
            <g mask="url(#k)">
                <g clip-path="url(#l)" display="block" mask="url(#m)">
                    <use xlink:href="#n" class="lottieIcon" />
                </g>
            </g>
            <g display="none" mask="url(#o)">
                <g clip-path="url(#p)" display="block" mask="url(#q)">
                    <use xlink:href="#n" class="lottieIcon" />
                </g>
            </g>
        </g>
    </g>
</svg>